/* XPM */
static char *display_im6_q16[] = {
/* columns rows colors chars-per-pixel */
"32 32 173 2 ",
"   c #29D723563590",
".  c #5B7C1E7820C2",
"X  c #7BFA1D74258F",
"o  c #7720237C3590",
"O  c #76E44CDE3B6C",
"+  c #1E6D22FE51FD",
"@  c #249C25654AE6",
"#  c #21FC24194120",
"$  c #2DA132B74E44",
"%  c #39D73AA645A5",
"&  c #2256293B5F53",
"*  c #25C227595442",
"=  c #248D2A606490",
"-  c #27D82E6467C5",
";  c #304E2CF1648B",
":  c #2FF1373E66DB",
">  c #39613B786A44",
",  c #24DA2E2F7029",
"<  c #285233F67BC1",
"1  c #25E7336A79CE",
"2  c #31F83DD17921",
"3  c #30243B8F748A",
"4  c #408C3E615653",
"5  c #3E6E41395E7F",
"6  c #4F34480E4EAA",
"7  c #5999419D43CA",
"8  c #4C094B62593C",
"9  c #518747E351EF",
"0  c #64375255450E",
"q  c #621F5C8D4DA5",
"w  c #7EA153D9416F",
"e  c #6F0E64CB4C13",
"r  c #6A726BB05808",
"t  c #77F075D15B20",
"y  c #440246AB66F1",
"u  c #578859BF699C",
"i  c #4B054F9B7584",
"p  c #43594C617939",
"a  c #4C4952AA796B",
"s  c #5A2B5F147937",
"d  c #643C5CE56007",
"f  c #5AB364347C5F",
"g  c #6737641B6404",
"h  c #6C216B4B6DD9",
"j  c #66E26B0B6A95",
"k  c #75D26C1E6BD0",
"l  c #6CAB6C31730A",
"z  c #65DB69717204",
"x  c #780F775A773B",
"c  c #713571107A88",
"v  c #7BCC7B1C7BB6",
"b  c #7518750075DC",
"n  c #85F145AB345E",
"m  c #819851323B15",
"M  c #BCE561D53CA8",
"N  c #A21A5B6D44F0",
"B  c #9BAB600740F5",
"V  c #859372B34A5F",
"C  c #8BBF6529543B",
"Z  c #8EB57E7D59CB",
"A  c #B7F6675E4532",
"S  c #AD1675945D33",
"D  c #B33B714A55EE",
"F  c #892D6E2961DE",
"G  c #884075486C61",
"H  c #943E76506E20",
"J  c #A06B60E362B3",
"K  c #A53B7C226C50",
"L  c #B3BB76FC7924",
"P  c #C3D16ED4498F",
"I  c #C73171D44CE3",
"U  c #C59E783E589E",
"Y  c #FFFF6D566D55",
"T  c #FFFF726F726F",
"R  c #FFFF7E307E30",
"E  c #8E01805D5C0E",
"W  c #904280E95AE7",
"Q  c #A5518E134D03",
"!  c #A1D68CA850AA",
"~  c #88C280F37DBF",
"^  c #9EB684A078A8",
"/  c #2ACE39E183C2",
"(  c #29B239B78B17",
")  c #2874352D81B8",
"_  c #302A3EDC8665",
"`  c #2A163BFC92A2",
"'  c #32FE40AE8359",
"]  c #3D35499A82A3",
"[  c #38C346528B72",
"{  c #42B84F10859F",
"}  c #473C50B182D3",
"|  c #5BC161B581CF",
" . c #638E695F80BA",
".. c #635E697B8AB0",
"X. c #6E93728D87EE",
"o. c #7D017CFC877D",
"O. c #751C7A0695E7",
"+. c #7FA683F69C57",
"@. c #88DA856985DB",
"#. c #872388A6939E",
"$. c #8EEF918699E1",
"%. c #95D0953B9640",
"&. c #9A5499399B35",
"*. c #AC5B9097844A",
"=. c #BDEE99F88A54",
"-. c #A3239BFE9C12",
";. c #BACEBA19963A",
":. c #B6E9B64491AF",
">. c #8FBF92A5A187",
",. c #9554980FA3EA",
"<. c #A45FA2EDA297",
"1. c #A8E5A76CA7A9",
"2. c #AEC7AD16AC59",
"3. c #A4BAA6D3B31F",
"4. c #A81CAA61B793",
"5. c #B5D2B561B54E",
"6. c #BB22BA41BAFF",
"7. c #B84FB5AEB0ED",
"8. c #FFFE831882E1",
"9. c #FFFF8B108B04",
"0. c #FFFF93FB93FB",
"q. c #FFFF9B5A9B5A",
"w. c #C8ACB82A9F14",
"e. c #C18EB454AE4D",
"r. c #D233B928ADAB",
"t. c #C08CBF64BFB3",
"y. c #CB71B898B52F",
"u. c #FFFEA748A748",
"i. c #FFFEA9E0A9C3",
"p. c #C37CC2F8A681",
"a. c #C60CC58DAA6F",
"s. c #CC3BCBCEB539",
"d. c #D14FD0EFBD95",
"f. c #DEF0D594B779",
"g. c #BB62BD9FC8F2",
"h. c #C3F8C354C35D",
"j. c #C879C778C71B",
"k. c #C7ABC8A5CDE9",
"l. c #D5ABD555C482",
"z. c #DBF5DBAFCE6A",
"x. c #C847C9B0D0F2",
"c. c #CD70CE24D215",
"v. c #D453D451D5DC",
"b. c #D88ED803D7C0",
"n. c #DB12DB40DC96",
"m. c #D4C7D579D93C",
"M. c #FFFEC3D5C3B4",
"N. c #FFC8CC54C799",
"B. c #E580DD23D945",
"V. c #FFFFD4C1D4C1",
"C. c #FF43DC28DC07",
"Z. c #E743E13CCDDD",
"A. c #E53FE465DCBD",
"S. c #EE8BE9EFDBBB",
"D. c #FF98E6ADD329",
"F. c #FF70F5FDDAB1",
"G. c #FF70F89DDD75",
"H. c #E5B6E4A9E49C",
"J. c #EAF7E9EFE42E",
"K. c #E6F1E73AE923",
"L. c #ED14ECF5ED50",
"P. c #FED0EE00EDC4",
"I. c #FFFDE5CDE565",
"U. c #FF93FA6AE5DD",
"Y. c #F338F265EF32",
"T. c #FF32FB7EECDD",
"R. c #FA8BF4DDE3BB",
"E. c #F51FF4FBF443",
"W. c #FE1AF5ECF5B3",
"Q. c #FFADFD62F45B",
"!. c #F7FFF815F8A5",
"~. c #FF9FFF8BFF71",
"^. c None",
/* pixels */
"^.~.~.~.~.~.~.!.~.~.T.Q.~.Q.!.!.~.~.~.~.~.~.~.~.~.~.~.~.~.~.~.~.",
"^.~.~.~.U.~.~.;.J.~.~.~.Q.Q.l.s.~.~.Q.~.~.~.~.~.~.~.~.~.~.~.~.~.",
"^.~.~.~.Q.~.~.Y.!.D.V.V.W.W.W.P.~.~.T.~.~.~.~.~.~.~.~.~.~.~.~.~.",
"^.~.~.E.d.~.~.W.W.0.T R T 0.9.i.C.P.W.~.~.~.~.~.~.~.~.~.~.~.~.~.",
"^.~.~.E.d.~.V.R i.M.0.u.q.8.T 9.q.R M.~.~.~.~.~.~.~.~.~.K.5.6.~.",
"^.F.~.~.~.N.8.8.M.R.~.Q.~.C.C.P.M.9.V.~.T.Q.~.~.~.~.H.,.t k E.~.",
"^.~.~.~.M.Y 8.u.Y.;.!.d.s.~.~.~.~.F.Q.E.l.~.~.~.E.4.f t q j.~.~.",
"^.~.~.P.0.8.D.~.~.A.E.Y.E.~.!.z.~.~.~.E.d.~.~.K.O.! z 8 x !.~.~.",
"^.:.Y.u.8.I.Q.~.a.J.R.Z.S.p.E.p.!.~.~.~.~.~.n.z } ! q 5 c.~.~.~.",
"^.A.C.0.u.~.U.Q.A.E.T.f.E.J.~.~.~.G.~.~.~.n.l z f z 5 +.Q.~.~.~.",
"^.~.P.M.V.~.~.~.~.~.~.S.J.~.~.~.~.~.~.~.L. .Q [ a g e b.~.~.~.~.",
"^.~.~.~.~.~.~.~.~.~.~.Q.f.W.~.~.~.~.~.!.$.] W W E V k !.~.~.~.~.",
"^.~.~.~.~.z.A.~.~.~.~.~.S.e.r.K.~.~.!.#.r r r j s % c ~.~.~.~.~.",
"^.~.~.~.~.A.J.~.~.~.~.~.Z.B A H 3.~.!.l O I m m 0 0 @.~.~.~.~.~.",
"^.~.~.~.~.~.~.~.~.~.~.~.Q.*.M N i E.~.y.G A k S U ~ g !.~.~.~.~.",
"^.~.~.~.~.~.~.~.~.~.~.~.~.E.k n > g.~.e.e.=.^ I A C *.~.~.~.~.~.",
"^.~.~.~.~.~.~.~.~.~.~.~.~.!.i @ < } c.2.5.h.2.D K F B.~.~.~.~.~.",
"^.~.~.~.~.~.~.~.~.~.~.~.~.!.i + < ` ] >.!.L.J.H.<.2.~.~.~.~.~.~.",
"^.~.~.~.~.~.~.~.~.~.~.~.~.~...& , ( ` ..~.~.~.E.1.<.~.~.~.~.~.~.",
"^.~.~.~.~.~.~.~.~.~.~.~.~.~.k.X.y - / p E.~.~.!.6.b L.~.~.~.~.~.",
"^.~.~.~.~.~.~.~.~.~.~.~.~.~.~.~.L.#.; 2 n.~.~.~.v.h | k.E.~.~.~.",
"^.~.~.~.~.~.~.~.~.~.~.~.~.~.~.~.~.~.#./ ,.~.~.~.L.&.3 _ | E.~.~.",
"^.~.~.~.~.~.~.~.~.~.~.~.~.~.~.~.~.~.x.< a E.~.~.!.j.u 1 : K.~.~.",
"^.~.~.~.~.~.~.~.~.~.~.~.~.~.~.~.~.~.K.2 ( 3.~.~.~.H.%.: y E.~.~.",
"^.~.~.~.~.~.~.~.~.~.~.~.~.~.~.~.~.~.E.p ` ] m.~.~.E.6.g z !.~.~.",
"^.~.~.~.~.~.~.~.~.~.~.~.~.~.~.~.~.~.!.| ` ` } x.E.L.6.@.w B.~.~.",
"^.~.~.~.~.~.~.~.~.~.~.~.~.~.~.~.~.~.~.>.( ` ` / s c z 8 9 H.~.~.",
"^.~.~.~.~.~.~.~.~.~.~.~.~.~.~.~.~.~.~.m.' ` ` ` ` ( / < = u n.~.",
"^.~.~.~.~.~.~.~.~.~.~.~.~.~.~.~.~.~.~.!.#.( ` ` ` ` ` ( , & o.W.",
"^.~.~.~.~.~.~.~.~.~.~.~.~.~.~.~.~.~.~.~.L o ; ( ` ` ` < = @ 9 h.",
"^.~.~.~.~.~.~.~.~.~.~.~.~.~.~.~.~.~.~.~.y.J 7 % $ * @ #   X . v ",
"^.~.~.~.~.~.~.~.~.~.~.~.~.~.~.~.~.~.~.~.~.!.L.v.5.%.v b %.-.-.n."
};
